<?xml version="1.0" standalone="no"?>
<!DOCTYPE svg PUBLIC "-//W3C//DTD SVG 1.1//EN" "http://www.w3.org/Graphics/SVG/1.1/DTD/svg11.dtd" >
<!--
2013-9-30: Created.
-->
<svg>
<metadata>
Created by iconfont
</metadata>
<defs>

<font id="iconfont" horiz-adv-x="1024" >
  <font-face
    font-family="iconfont"
    font-weight="500"
    font-stretch="normal"
    units-per-em="1024"
    ascent="896"
    descent="-128"
  />
    <missing-glyph />
    
    <glyph glyph-name="51" unicode="&#58943;" d="M512 747C265.146 747 65 546.854 65 300c0-246.854 200.146-447 447-447 246.854 0 447 200.146 447 447C959 546.854 758.854 747 512 747zM512-117.199C281.952-117.199 94.8 69.952 94.8 300S281.952 717.2 512 717.2 929.2 530.048 929.2 300 742.048-117.199 512-117.199zM497.1 400.575l29.8 0 0-342.7-29.8 0 0 342.7ZM512 489.975m-29.8 0a29.8 29.8 0 1 0 59.6 0 29.8 29.8 0 1 0-59.6 0Z"  horiz-adv-x="1024" />

    
    <glyph glyph-name="icon" unicode="&#58881;" d="M933.4461 252.137787c-18.783809 108.945271-97.673553 180.322925-97.673553 180.322925 11.268648 98.920964-30.055526 116.461455-30.055526 116.461455C797.015847 854.972585 533.382495 849.61353 527.847431 849.468221c-5.542226 0.145309-269.211395 5.504364-277.872658-300.5481 0 0-41.325198-17.539468-30.054503-116.461455 0 0-78.894861-71.377654-97.676623-180.322925 0 0-10.033517-184.082552 90.159416-22.543436 0 0 22.544459-61.344137 63.86761-116.455315 0 0-73.897034-25.061792-67.621097-90.164532 0 0-2.517333-72.618924 157.784606-67.62519 0 0 112.701828 8.756431 146.515958 56.350402l14.766308 0 0.26299 0 14.765285 0c33.809013-47.596018 146.513912-56.350402 146.513912-56.350402 160.26203-4.993734 157.781536 67.62519 157.781536 67.62519 6.238075 65.10274-67.620074 90.164532-67.620074 90.164532 41.324174 55.109132 63.86147 116.455315 63.86147 116.455315C943.437661 68.055235 933.4461 252.137787 933.4461 252.137787L933.4461 252.137787z"  horiz-adv-x="1024" />

    
    <glyph glyph-name="list" unicode="&#58952;" d="M104.727552 438.30272l54.30272 0c14.994432 0 27.15136-12.157952 27.15136-27.15136l0-54.303744c0-14.994432-12.156928-27.15136-27.15136-27.15136l-54.30272 0c-14.994432 0-27.15136 12.156928-27.15136 27.15136L77.576192 411.15136C77.576192 426.145792 89.73312 438.30272 104.727552 438.30272zM349.090816 411.15136l570.181632 0c14.994432 0 27.15136-12.157952 27.15136-27.15136s-12.156928-27.152384-27.15136-27.152384l-570.181632 0c-14.994432 0-27.15136 12.157952-27.15136 27.152384S334.097408 411.15136 349.090816 411.15136zM104.727552 221.090816l54.30272 0c14.994432 0 27.15136-12.156928 27.15136-27.152384l0-54.30272c0-14.994432-12.156928-27.15136-27.15136-27.15136l-54.30272 0c-14.994432 0-27.15136 12.156928-27.15136 27.15136l0 54.30272C77.576192 208.933888 89.73312 221.090816 104.727552 221.090816zM349.090816 193.939456l570.181632 0c14.994432 0 27.15136-12.156928 27.15136-27.15136s-12.156928-27.152384-27.15136-27.152384l-570.181632 0c-14.994432 0-27.15136 12.157952-27.15136 27.152384S334.097408 193.939456 349.090816 193.939456zM104.727552 655.514624l54.30272 0c14.994432 0 27.15136-12.157952 27.15136-27.15136l0-54.30272c0-14.994432-12.156928-27.15136-27.15136-27.15136l-54.30272 0c-14.994432 0-27.15136 12.156928-27.15136 27.15136l0 54.30272C77.576192 643.357696 89.73312 655.514624 104.727552 655.514624zM349.090816 628.363264l570.181632 0c14.994432 0 27.15136-12.157952 27.15136-27.15136 0-14.994432-12.156928-27.15136-27.15136-27.15136l-570.181632 0c-14.994432 0-27.15136 12.156928-27.15136 27.15136C321.939456 616.206336 334.097408 628.363264 349.090816 628.363264z"  horiz-adv-x="1024" />

    
    <glyph glyph-name="arrow-right" unicode="&#58924;" d="M849.691 384c0-8.142-3.235-15.95-8.992-21.707l-255.827-255.827c-11.989-11.988-31.426-11.988-43.415 0-11.99 11.989-11.99 31.427 0 43.416l234.118 234.118-234.118 234.119c-11.99 11.988-11.99 31.427 0 43.415 11.989 11.989 31.426 11.989 43.415 0l255.827-255.827c5.757-5.757 8.992-13.566 8.992-21.707zM849.691 384c0-16.954-13.745-30.699-30.699-30.699h-613.984c-16.954 0-30.699 13.745-30.699 30.699s13.745 30.699 30.699 30.699h613.984c16.954 0 30.699-13.745 30.699-30.699z"  horiz-adv-x="1024" />

    
    <glyph glyph-name="love" unicode="&#58914;" d="M1102.230863 552.748481c-0.622114-8.865128-1.399757-17.885784-2.021871-26.750911-3.577157-46.036452-16.17497-89.739976-36.393682-130.955043-32.816525-66.72175-74.18712-127.844471-122.867558-184.145808-52.72418-61.122722-109.803159-117.579587-169.370595-172.014581-57.078979-52.102066-116.17983-101.871203-176.680437-149.929526-14.930741-11.82017-31.416768-18.507898-50.702309-16.641555-13.064399 1.399757-24.573512 6.532199-34.682868 14.619684-107.936817 85.540705-211.518834 176.058323-306.235723 276.529769-54.434994 57.701094-103.27096 119.601458-142.619684 188.656136-23.173755 40.748481-43.081409 82.896719-52.257594 129.244228-3.732685 18.352369-5.132442 37.326853-7.620899 55.990279-0.311057 1.866343-0.622114 3.888214-0.777643 5.754557l0 31.261239c0.311057 2.021871 0.777643 4.199271 1.0887 6.221142 0.933171 8.865128 1.244228 17.885784 2.488457 26.750911 9.331713 64.699878 32.972053 123.334143 74.653706 174.036452 54.123937 65.944107 123.023086 105.759417 209.030377 113.380316 44.325638 3.888214 86.940462-2.799514 128.155529-19.285541 46.969623-18.663426 86.629405-47.747266 119.601458-86.00729 5.287971-6.221142 10.420413-12.597813 16.019441-19.441069 1.555286 2.021871 2.955043 3.577157 4.199271 5.287971 27.217497 35.304982 60.18955 64.077764 99.538275 85.229648 57.701094 31.105711 119.290401 42.148238 183.990279 31.261239 75.27582-12.753341 136.243013-50.857837 184.301337-109.647631 46.036452-56.301337 70.921021-121.312272 77.297691-193.63305 0.777643-8.709599 1.244228-17.574727 2.021871-26.284326C1102.230863 559.28068 1102.230863 556.014581 1102.230863 552.748481L1102.230863 552.748481zM1033.487242 557.103281c-0.777643 10.420413-1.244228 20.840826-2.332928 31.105711-6.221142 57.856622-27.684083 109.492102-66.877278 152.884569-52.568651 57.856622-117.579587 85.851762-196.277035 78.075334-54.123937-5.443499-99.693803-29.394897-138.109356-67.188335-26.128797-25.662211-44.947752-56.301337-59.256379-89.895504-3.732685-8.709599-9.953827-14.153098-19.596598-14.308627-9.64277 0-16.019441 5.443499-19.596598 14.153098-11.975699 27.99514-26.90644 54.434994-47.436209 77.297691-44.636695 49.769137-99.538275 78.852977-167.037667 81.030377-62.36695 2.021871-116.957473-18.818955-161.749696-61.589307C80.71932 687.591738 56.612394 599.718104 75.120292 499.402187c6.998785-38.104496 24.262454-72.320778 43.081409-105.759417 37.948967-67.654921 86.318348-127.533414 139.664642-183.523694 89.428919-93.939247 186.945322-178.857837 288.194411-259.577157 3.888214-3.110571 6.065614-3.110571 9.953827 0 56.923451 45.414338 112.602673 92.228433 166.415553 141.219927 58.634265 53.346294 115.246659 108.714459 167.193196 168.90401 46.969623 54.434994 86.940462 113.380316 117.424058 178.54678C1024.311057 476.53949 1033.020656 515.888214 1033.487242 557.103281L1033.487242 557.103281zM1033.487242 557.103281"  horiz-adv-x="1103" />

    
    <glyph glyph-name="share" unicode="&#58965;" d="M72.447009 73.950502c0 0 83.371826 474.740398 507.496429 474.740398L579.943438 731.283518l362.501104-328.666508L579.943438 95.861534 579.943438 306.527534C349.757872 306.527534 192.524828 286.214906 72.447009 73.950502z"  horiz-adv-x="1024" />

    
    <glyph glyph-name="eye" unicode="&#59309;" d="M512.192 64c-282.752 0-512 267.456-512 320 0 52.544 229.248 320 512 320 282.816 0 512-259.2 512-320 0-60.8-229.184-320-512-320z m0 64c247.424 0 448 205.824 448 255.808 0 49.984-200.576 256.192-448 256.192s-448-212.992-448-256.192c0-43.2 200.576-255.808 448-255.808zM512 224a160 160 0 1 0 0 320 160 160 0 0 0 0-320z m0 64a96 96 0 1 1 0 192 96 96 0 0 1 0-192z"  horiz-adv-x="1024" />

    
    <glyph glyph-name="card" unicode="&#58994;" d="M118.916129 816.722581c-23.122581 0-39.63871-16.516129-39.63871-39.63871v-234.529032c0-23.122581 16.516129-39.63871 39.63871-39.63871h234.529032c23.122581 0 39.63871 16.516129 39.63871 39.63871V777.083871c0 23.122581-16.516129 39.63871-39.63871 39.63871H118.916129z m234.529032-393.083871H118.916129c-66.064516 0-118.916129 52.851613-118.916129 118.916129V777.083871C0 843.148387 52.851613 896 118.916129 896h234.529032c66.064516 0 118.916129-52.851613 118.916129-118.916129v-234.529032c0-66.064516-52.851613-118.916129-118.916129-118.916129zM118.916129 265.083871c-23.122581 0-39.63871-16.516129-39.63871-39.63871v-234.529032c0-23.122581 16.516129-39.63871 39.63871-39.63871h234.529032c23.122581 0 39.63871 16.516129 39.63871 39.63871v234.529032c0 23.122581-16.516129 39.63871-39.63871 39.63871H118.916129zM353.445161-128H118.916129c-66.064516 0-118.916129 52.851613-118.916129 118.916129v237.832258c0 66.064516 52.851613 118.916129 118.916129 118.916129h234.529032c66.064516 0 118.916129-52.851613 118.916129-118.916129v-234.529032c0-69.367742-52.851613-122.219355-118.916129-122.219355zM667.251613 109.832258c-23.122581 0-39.63871-16.516129-39.63871-39.63871v-79.277419c0-23.122581 16.516129-39.63871 39.63871-39.63871h234.529032c23.122581 0 39.63871 16.516129 39.63871 39.63871V70.193548c0 23.122581-16.516129 39.63871-39.63871 39.63871h-234.529032z m237.832258-237.832258h-237.832258c-66.064516 0-118.916129 52.851613-118.916129 118.916129V70.193548c0 66.064516 52.851613 118.916129 118.916129 118.916129h234.529032c66.064516 0 118.916129-52.851613 118.916129-118.916129v-79.277419c3.303226-66.064516-49.548387-118.916129-115.612903-118.916129zM667.251613 816.722581c-23.122581 0-39.63871-16.516129-39.63871-39.63871v-393.083871c0-23.122581 16.516129-39.63871 39.63871-39.63871h234.529032c23.122581 0 39.63871 16.516129 39.63871 39.63871V777.083871c0 23.122581-16.516129 39.63871-39.63871 39.63871h-234.529032z m237.832258-551.63871h-237.832258c-66.064516 0-118.916129 52.851613-118.916129 118.916129V777.083871c0 66.064516 52.851613 118.916129 118.916129 118.916129h234.529032c66.064516 0 118.916129-52.851613 118.916129-118.916129v-393.083871c3.303226-66.064516-49.548387-118.916129-115.612903-118.916129z"  horiz-adv-x="1024" />

    
    <glyph glyph-name="xingzhuang" unicode="&#58917;" d="M890.88 578.56h20.48C875.52 757.76 686.08 896 455.68 896 204.8 896 0 727.04 0 522.24c0-122.88 71.68-230.4 179.2-296.96l5.12-5.12-46.08-133.12L307.2 174.08000000000004h10.24c46.08-10.24 92.16-20.48 143.36-20.48h30.72c-10.24 30.72-15.36 56.32-15.36 87.04-5.12 189.44 184.32 337.92 414.72 337.92zM614.4 711.6800000000001c35.84 0 66.56-25.6 66.56-61.44S650.24 588.8 614.4 588.8s-66.56 25.6-66.56 61.44 30.72 61.44 66.56 61.44zM296.96 588.8c-35.84 0-61.44 30.72-61.44 61.44 0 35.84 30.72 61.44 66.56 61.44 35.84 0 66.56-25.6 66.56-61.44S332.8 588.8 296.96 588.8zM1280 240.64c0 174.08-174.08 312.32-384 312.32S512 409.6 512 240.64s174.08-312.32 384-312.32c40.96 0 81.92 5.12 122.88 15.36h5.12l138.24-71.68-35.84 112.64h5.12c87.04 61.44 148.48 153.6 148.48 256z m-522.24 56.32c-30.72 0-56.32 20.48-56.32 51.2s25.6 51.2 56.32 51.2c30.72 0 56.32-20.48 56.32-51.2s-25.6-51.2-56.32-51.2z m271.36 0c-30.72 0-56.32 20.48-56.32 51.2s25.6 51.2 56.32 51.2 56.32-20.48 56.32-51.2-25.6-51.2-56.32-51.2z"  horiz-adv-x="1280" />

    
    <glyph glyph-name="phoneon" unicode="&#59056;" d="M999.806812 121.471064c40.319849-48.319819 21.951918-121.471544 7.99997-135.679491-13.887948-14.463946-12.863952-21.37592-79.551702-81.919693-67.135748-60.927772-201.343245-19.199928-262.271016 0-60.991771 19.391927-226.55915 125.31153-379.774576 270.910985C131.07407 322.302311 50.88237 506.045622 18.050494 605.949248c-32.831877 100.095625-12.287954 136.319489 0 170.111362 12.159954 33.919873 34.68787 62.591765 101.11962 100.735622C185.473866 915.004089 209.601775 885.948198 226.561712 876.796232c17.023936-8.959966 91.263658-73.983723 117.055561-135.423492 25.599904-61.43977 13.43995-100.927622-6.399976-119.615552-19.711926-18.55993-33.791873-35.711866-50.111812-47.231822-16.319939-11.391957-19.839926-27.903895-17.343935-59.711777 2.303991-31.99988 117.503559-156.543413 140.223474-179.519326 22.655915-23.039914 172.671352-178.239332 224.703157-190.143287 52.159804-11.711956 71.039734 10.879959 76.671713 17.087936 5.631979 6.015977 26.175902 33.919873 49.407814 53.375799 23.359912 19.327928 85.759678 14.079947 101.119621 3.199988 15.423942-10.879959 97.599634-48.767817 137.919483-97.279635z m-284.734932 348.350694c-12.799952 0-24.191909 8.959966-26.8159 22.015918-16.511938 82.303691-76.351714 115.967565-76.991711 116.287564a27.391897 27.391897 0 0 0 26.303901 47.99982c3.391987-1.791993 82.943689-46.463826 104.319609-153.599424a27.391897 27.391897 0 0 0-26.815899-32.703878z m127.99952-13.951948a27.391897 27.391897 0 0 0-27.263898 24.639908c-7.487972 74.239722-37.119861 135.93549-87.871671 183.487312-38.527856 36.031865-75.519717 50.175812-75.903715 50.303811a27.327898 27.327898 0 1 0 18.879929 51.391808c1.919993-0.639998 46.079827-17.151936 92.415654-59.839776 42.62384-39.231853 95.807641-109.24759 107.007598-219.839176a27.391897 27.391897 0 0 0-27.327897-30.143887zM994.622831 469.30976c-16.383939 0-29.695889 12.159954-29.759888 27.199898-0.319999 110.079587-43.967835 201.599244-129.599514 271.99898A436.798362 436.798362 0 0 1 703.295924 842.74836c-15.551942 4.799982-23.93591 20.223924-18.81593 34.55987 5.183981 14.207947 21.951918 21.951918 37.50386 17.279935 3.135988-0.959996 76.927712-23.807911 151.039433-83.967685a415.678441 415.678441 0 0 0 103.679612-122.62354c31.359882-57.279785 47.359822-121.599544 47.615821-191.359282 0-15.103943-13.24795-27.327898-29.631889-27.391898h-0.064z"  horiz-adv-x="1025" />

    
    <glyph glyph-name="right" unicode="&#59004;" d="M276.945455-107.05454499999996c-6.981818 0-11.636364 2.327273-16.29091 6.981818-9.309091 9.309091-9.309091 23.272727 0 32.581818l470.109091 465.454545c9.309091 9.309091 23.272727 9.309091 32.581819 0 9.309091-9.309091 9.309091-23.272727 0-32.581818l-470.109091-465.454545c-4.654545-4.654545-9.309091-6.981818-16.290909-6.981818zM747.054545 358.4c-6.981818 0-11.636364 2.327273-16.290909 6.981818l-470.109091 465.454546c-9.309091 9.309091-9.309091 23.272727 0 32.581818 9.309091 9.309091 23.272727 9.309091 32.581819 0l470.109091-465.454546c9.309091-9.309091 9.309091-23.272727 0-32.581818-4.654545-4.654545-9.309091-6.981818-16.29091-6.981818z"  horiz-adv-x="1024" />

    
    <glyph glyph-name="-testsuccess" unicode="&#59054;" d="M742.442667 472.917333l-270.933334-270.549333a47.872 47.872 0 0 0-67.669333 0L268.330667 337.877333a47.872 47.872 0 0 0 67.797333 67.541334l101.546667-101.546667L674.730667 540.928A48 48 0 0 0 742.4 472.917333"  horiz-adv-x="1024" />

    
    <glyph glyph-name="lujing" unicode="&#58970;" d="M1003.789812 535.802802a75.31355 75.31355 0 0 1-16.054865 78.921384 73.32924 73.32924 0 0 1-75.223353 24.623472 38.874419 38.874419 0 0 0-40.678337 12.356834 47.082243 47.082243 0 0 0-9.019586 40.678337 34.454821 34.454821 0 0 0 30.125419 28.411698 158.654531 158.654531 0 0 0 112.20366-16.054865 168.756469 168.756469 0 0 0 73.960611-82.619414A148.101615 148.101615 0 0 0 1082.350413 511.089134a36.619522 36.619522 0 0 0-30.846987-28.321502 43.203821 43.203821 0 0 0-39.415594 12.356834 38.062656 38.062656 0 0 0-8.29802 40.678336z m-473.528306-663.480803a780.374648 780.374648 0 0 0-255.254305 41.941079A503.202746 503.202746 0 0 0 78.921384 30.164768a247.94844 247.94844 0 0 0-78.921384 180.391735 364.571697 364.571697 0 0 0 49.33714 172.274108 786.86875 786.86875 0 0 0 138.089873 180.391735A823.75886 823.75886 0 0 0 369.803058 703.47692a329.756092 329.756092 0 0 0 151.709449 48.074398 99.846826 99.846826 0 0 0 95.066445-42.843037 160.548645 160.548645 0 0 0 0-130.693813q-9.83135-27.05876 27.05876-14.792122h2.435289a456.300895 456.300895 0 0 0 175.070179 41.941079 122.936968 122.936968 0 0 0 107.242887-43.203821 129.250678 129.250678 0 0 0-1.262743-124.560493q-4.960773-17.227411 0-22.188184a56.462613 56.462613 0 0 1 22.188184-9.831349 203.932857 203.932857 0 0 0 145.485934-128.258524 204.925011 204.925011 0 0 0-41.941078-178.76821 487.779253 487.779253 0 0 0-197.077971-156.94081 760.260969 760.260969 0 0 0-325.516887-69.090035z m355.191327 362.587389a185.803488 185.803488 0 0 1-64.129261 118.336978 351.132513 351.132513 0 0 1-146.748677 76.486096 535.583063 535.583063 0 0 1-193.560332 14.792122 515.739972 515.739972 0 0 1-186.254467-51.50184 356.093286 356.093286 0 0 1-128.258524-103.90564 184.630941 184.630941 0 0 1-39.415594-129.521266 181.203498 181.203498 0 0 1 63.137107-119.599721 351.132513 351.132513 0 0 1 146.748677-76.486095 535.583063 535.583063 0 0 1 193.560332-14.792123 527.014455 527.014455 0 0 1 187.427013 51.772428 342.744297 342.744297 0 0 1 127.987936 103.90564 194.91327 194.91327 0 0 1 39.415595 130.513421zM858.394073 888.468645a46.811655 46.811655 0 0 1-36.980306-33.282275 48.705769 48.705769 0 0 1 9.83135-46.901851 42.57245 42.57245 0 0 1 46.901851-13.529381 233.33671 233.33671 0 0 0 161.540799-23.450925 236.944545 236.944545 0 0 0 108.235042-119.599721 226.57202 226.57202 0 0 0 6.133319-162.352562 42.392058 42.392058 0 0 1 9.831349-48.074397 52.854778 52.854778 0 0 1 45.639109-14.792122 43.564604 43.564604 0 0 1 36.078347 33.282275 313.88162 313.88162 0 0 1-9.831349 231.80338 311.356135 311.356135 0 0 1-148.011419 162.352562A325.336495 325.336495 0 0 1 858.303877 888.468645z m-194.823074-766.664876a196.176012 196.176012 0 0 0-109.858567-106.431124 216.470083 216.470083 0 0 0-156.850614-10.192133 160.999624 160.999624 0 0 0-104.807598 90.195868 151.889841 151.889841 0 0 0 3.69803 131.956555 201.407373 201.407373 0 0 0 106.250732 98.854671 226.301432 226.301432 0 0 0 150.446708 12.717617 163.525108 163.525108 0 0 0 109.768371-82.619415 146.117306 146.117306 0 0 0 1.172546-134.842822zM450.979339 195.403597a70.442973 70.442973 0 0 1-51.772428 0 80.635106 80.635106 0 0 1-41.941079-33.282275 57.544964 57.544964 0 0 1-9.019587-46.901851 55.019479 55.019479 0 0 1 30.846987-36.078347 65.842983 65.842983 0 0 1 53.846933-1.803917 78.740993 78.740993 0 0 1 43.203821 34.545017 59.348881 59.348881 0 0 1 7.396061 49.33714A51.682232 51.682232 0 0 1 450.979339 195.403597z m81.176281 32.019533a20.925441 20.925441 0 0 1-19.752895 0 42.933233 42.933233 0 0 1-16.054865-13.52938 19.482307 19.482307 0 0 1-3.69803-17.22741 22.007792 22.007792 0 0 1 12.356833-13.529381 23.450926 23.450926 0 0 1 20.925442 0 33.192079 33.192079 0 0 1 16.054864 13.529381 24.172493 24.172493 0 0 1 2.435289 18.490152 15.874473 15.874473 0 0 1-11.725463 12.356834z"  horiz-adv-x="1263" />

    
    <glyph glyph-name="search" unicode="&#58963;" d="M400.696889 94.606222A400.668444 400.668444 0 1 0 400.696889 896a400.668444 400.668444 0 0 0 0-801.393778z m0 89.031111a311.637333 311.637333 0 1 1 0 623.331556 311.637333 311.637333 0 0 1 0-623.331556zM667.904 294.001778l314.766222-314.823111-62.919111-62.976-314.823111 314.823111z"  horiz-adv-x="1024" />

    
    <glyph glyph-name="down_arrow" unicode="&#58932;" d="M235.221333 541.866667l257.856-343.808a21.333333 21.333333 0 0 1 34.133334 0L785.066667 541.866667A21.333333 21.333333 0 0 1 768 576H252.288a21.333333 21.333333 0 0 1-17.066667-34.133333z"  horiz-adv-x="1024" />

    
    <glyph glyph-name="close-hei" unicode="&#58659;" d="M521.693867 446.702933L111.4112 856.9856a51.2 51.2 0 1 1-72.430933-72.362667l410.282666-410.3168-410.282666-410.3168a51.2 51.2 0 1 1 72.3968-72.3968l410.3168 410.282667 410.3168-410.282667a51.2 51.2 0 1 1 72.3968 72.362667l-410.282667 410.350933 410.282667 410.282667a51.2 51.2 0 1 1-72.3968 72.3968l-410.282667-410.282667z"  horiz-adv-x="1024" />

    
    <glyph glyph-name="love1" unicode="&#58896;" d="M583.927924-127.806862S-353.368753 440.790174 147.050717 827.258472C408.945276 1007.262697 579.48576 776.849564 579.48576 776.849564s170.540483 230.413133 432.435042 50.408908C1511.181447 440.983312 583.927924-127.806862 583.927924-127.806862m-1.158825 135.196306S-130.10171 455.661768 233.576353 744.981863c209.361137 142.728672 345.716269-155.862027 345.716269-155.862027S715.647754 887.517397 925.008891 744.981863C1288.880092 455.275493 582.962236 7.389444 582.962236 7.389444"  horiz-adv-x="1159" />

    
    <glyph glyph-name="success" unicode="&#58625;" d="M512-128C229.2352-128 0 101.23519999999996 0 384S229.2352 896 512 896s512-229.2352 512-512-229.2352-512-512-512z m271.5264 653.7088l-54.2976 54.3104-307.7376-307.7376-126.72 126.72-54.2976-54.3104L385.28 199.87199999999996l36.1984-36.1984z"  horiz-adv-x="1024" />

    
    <glyph glyph-name="down" unicode="&#58886;" d="M830.24 555.312L841.568 544a16 16 0 0 0 0-22.624L530.448 210.24a16 16 0 0 0-22.64 0l-311.12 311.136a16 16 0 0 0 0 22.624L208 555.312a16 16 0 0 0 22.624 0L519.12 266.816l288.512 288.496a16 16 0 0 0 22.624 0z"  horiz-adv-x="1024" />

    
    <glyph glyph-name="ios-shijian" unicode="&#58679;" d="M511.99826313 774.77637863C296.16760747 774.77637863 121.20885801 599.8202344700001 121.20885801 384c0-215.82197135 174.96048633-390.7755102 390.78940512-390.7755102 215.82978724 0 390.79201043 174.95353886 390.79201043 390.7755102 0 215.82110291-174.96309162 390.77637863-390.79201043 390.77637863z m0-746.02778984C315.78723404 28.748588789999985 156.73295701 187.81241857999999 156.73295701 384c0 196.22145028 159.05427703 355.25054277 355.26530612 355.25054277S867.26270082 580.2197134200001 867.26270082 384c0-196.18497612-159.05427703-355.25141121-355.26443769-355.25141121z m195.39643944 355.24967434H529.7594442V614.9118541c0 9.81676075-7.96005211 17.7620495-17.76204949 17.76204951-9.80112896 0-17.76291793-7.94355189-17.76291794-17.76204951v-248.6739036c0-9.80112896 7.96352583-17.7620495 17.76291794-17.7620495h195.39643942c9.80026053 0 17.76291793 7.96178897 17.76291793 17.7620495-0.00173687 9.81502388-7.96352583 17.76118107-17.76291793 17.76118107z"  horiz-adv-x="1024" />

    
    <glyph glyph-name="chaxun" unicode="&#58974;" d="M950.6-9.4L798.9 142.3c56.9 70.6 91 160.5 91 258.3C890 628 705.6 812.4 478.2 812.4S66.4 628 66.4 400.6s184.4-411.8 411.8-411.8c106.6 0 203.7 40.5 276.9 107l150.4-150.4c6.2-6.2 14.4-9.4 22.6-9.4s16.4 3.1 22.6 9.4c12.4 12.5 12.4 32.7-0.1 45.2z m-337.1 89.5c-42.8-18.1-88.4-27.3-135.4-27.3s-92.5 9.2-135.4 27.3c-41.4 17.5-78.6 42.6-110.6 74.6-32 32-57 69.2-74.6 110.6-18.1 42.8-27.3 88.4-27.3 135.4s9.2 92.5 27.3 135.4c17.5 41.4 42.6 78.6 74.6 110.6 32 32 69.2 57 110.6 74.6 42.8 18.1 88.4 27.3 135.4 27.3s92.5-9.2 135.4-27.3c41.4-17.5 78.6-42.6 110.6-74.6 32-32 57-69.2 74.6-110.6 18.1-42.8 27.3-88.4 27.3-135.4s-9.2-92.5-27.3-135.4c-17.5-41.4-42.6-78.6-74.6-110.6-32-32-69.2-57.1-110.6-74.6z"  horiz-adv-x="1024" />

    
    <glyph glyph-name="search1" unicode="&#59088;" d="M400.704 94.592A400.64 400.64 0 1 0 400.704 896a400.64 400.64 0 0 0 0-801.408z m0 89.024a311.68 311.68 0 1 1 0 623.36 311.68 311.68 0 0 1 0-623.36z m267.264 110.4l314.752-314.88-62.912-62.912-314.816 314.816 62.976 62.976z"  horiz-adv-x="1024" />

    


  </font>
</defs>
</svg>
